<svg width="155" height="30" viewBox="0 0 155 30" fill="none" xmlns="http://www.w3.org/2000/svg">
<path fill-rule="evenodd" clip-rule="evenodd" d="M85.8565 14.7171V22.4619H81.934V15.3207C81.934 13.1333 80.9532 12.1272 79.3686 12.1272C77.6084 12.1272 76.3767 13.2589 76.3767 15.6728V22.4619H72.4539V15.3207C72.4539 13.1333 71.5234 12.1272 69.8889 12.1272C68.1543 12.1272 66.9222 13.2589 66.9222 15.6728V22.4619H62.9998V8.9341H66.7461V10.4931C67.7515 9.33615 69.26 8.7325 70.9954 8.7325C72.8816 8.7325 74.4905 9.46177 75.4458 10.9455C76.5271 9.56257 78.2881 8.7325 80.3247 8.7325C83.543 8.7325 85.8565 10.5935 85.8565 14.7171ZM99.4087 15.6981C99.4087 13.3595 97.9253 11.9513 95.9643 11.9513C94.0029 11.9513 92.4944 13.3595 92.4944 15.6981C92.4944 18.0363 94.0029 19.4449 95.9643 19.4449C97.9253 19.4449 99.4087 18.0363 99.4087 15.6981ZM88.5208 15.6981C88.5208 11.6245 91.6643 8.73261 95.9643 8.73261C100.264 8.73261 103.382 11.6245 103.382 15.6981C103.382 19.7713 100.264 22.6632 95.9643 22.6632C91.6643 22.6632 88.5208 19.7713 88.5208 15.6981ZM119.827 14.7171V22.4619H115.905V15.3207C115.905 13.1333 114.898 12.1272 113.163 12.1272C111.277 12.1272 109.92 13.2841 109.92 15.7736V22.4619H105.997V8.9341H109.744V10.5179C110.8 9.36135 112.384 8.7325 114.22 8.7325C117.413 8.7325 119.827 10.5935 119.827 14.7171ZM123.372 22.4622V8.93402H127.295V22.4622H123.372ZM122.894 4.86042C122.894 3.62829 123.875 2.67261 125.333 2.67261C126.792 2.67261 127.772 3.57789 127.772 4.78482C127.772 6.09216 126.792 7.04784 125.333 7.04784C123.875 7.04784 122.894 6.09216 122.894 4.86042ZM135.24 9.23554H138.71V12.253H135.341V22.4621H131.418V12.253H129.331V9.23554H131.418V8.63227C131.418 5.58957 133.278 3.60298 136.648 3.60298C137.754 3.60298 138.911 3.8294 139.64 4.33225L138.61 7.17373C138.182 6.87209 137.629 6.69608 137.025 6.69608C135.868 6.69608 135.24 7.32455 135.24 8.65709V9.23554ZM154.35 8.93391L148.239 23.2917C146.932 26.5609 145.071 27.5414 142.632 27.5414C141.249 27.5414 139.74 27.0889 138.86 26.3092L140.294 23.5182C140.897 24.0462 141.727 24.373 142.506 24.373C143.588 24.373 144.191 23.8954 144.719 22.6881L144.769 22.5625L138.911 8.93391H142.959L146.756 18.112L150.578 8.93391H154.35Z" fill="#31C6AC"/>
<path fill-rule="evenodd" clip-rule="evenodd" d="M24.8171 8.01889C23.9244 7.1243 23.0539 6.20717 22.0535 5.42979C20.863 4.50427 19.5064 4.06022 17.9952 4.08504C15.1526 4.13353 13.1629 5.64819 11.6544 7.88984C9.92627 10.4583 8.26766 13.0734 6.57659 15.6663C6.10772 16.3849 5.61556 17.0878 5.15852 17.8129C4.38649 19.037 3.95542 20.368 4.17687 21.8216C4.46896 23.7394 5.58234 25.0311 7.42041 25.6245C9.24816 26.214 10.9736 25.8952 12.2974 24.4973C13.6219 23.0984 14.7837 21.5444 15.9972 20.0423C18.9497 16.3891 21.8829 12.7198 24.8477 9.07653C25.1921 8.65271 25.1921 8.39422 24.8171 8.01889ZM55.4003 21.7673C55.0818 25.5141 53.1071 28.1204 49.6291 29.3915C46.5016 30.5342 43.5994 30.0509 41.047 28.0883C41.0046 28.0563 40.9626 28.0227 40.921 27.9894C40.4846 27.6145 40.2078 27.0605 40.2078 26.4404C40.2078 26.3694 40.2112 26.2987 40.2185 26.2289C40.257 25.8524 40.4002 25.5072 40.6155 25.2194C40.9882 24.7218 41.5804 24.3981 42.2497 24.3981C42.672 24.3981 43.0638 24.526 43.3894 24.7455C43.4608 24.8058 43.5342 24.8635 43.609 24.9192C45.5482 26.3633 48.3993 26.1842 50.1155 24.3332C51.5657 22.7692 51.7696 20.3886 50.5817 18.2764C50.1041 17.4272 49.5302 16.6319 48.9934 15.816C47.108 12.9508 45.3092 10.0231 43.3119 7.2377C40.0696 2.71431 34.6504 3.41457 31.8628 6.82915C30.0377 9.06393 28.2489 11.3285 26.4402 13.577C22.9126 17.9622 19.4152 22.3725 15.8444 26.7222C11.6196 31.8695 3.24715 30.6812 0.726015 24.5775C-0.585525 21.4023 -0.0509817 18.3623 1.77334 15.5227C3.3449 13.078 4.94967 10.6546 6.54757 8.22737C7.54259 6.71614 8.45551 5.15145 9.67694 3.79447C13.9201 -0.920198 20.9382 -1.23329 25.3078 2.81015C25.9725 3.42602 26.6243 4.05602 27.2703 4.69174C27.8854 5.29769 27.8785 5.30494 28.4005 4.61538C31.3645 0.69985 36.2644 -0.914853 40.8824 0.527269C43.7331 1.41728 45.7418 3.37257 47.3428 5.79481C49.523 9.09371 51.6863 12.4044 53.8272 15.7289C55.0058 17.5601 55.5866 19.5769 55.4003 21.7673ZM23.5029 22.9315C23.7076 22.6726 23.8393 22.6688 24.0397 22.9281C24.3605 23.3427 24.6953 23.7474 25.0458 24.1373C26.9076 26.2063 29.8346 26.4725 31.9101 24.7688C33.9914 23.0609 34.3102 20.1599 32.6543 17.9167C31.9892 17.0156 31.3279 16.11 30.6219 15.2413C30.3141 14.863 30.2546 14.6132 30.6108 14.2196C31.2813 13.4777 31.9006 12.6881 32.5157 11.8982C32.7734 11.5675 32.9116 11.4495 33.2224 11.8794C34.1579 13.173 35.1651 14.4147 36.1032 15.7064C37.2265 17.2535 37.7893 18.998 37.7928 21.1328C37.8039 21.6352 37.7374 22.3485 37.5499 23.0411C36.5534 26.7149 34.2083 29.0669 30.4718 29.7752C26.7342 30.4838 23.6946 29.1341 21.3716 26.1342C21.1883 25.8978 21.1864 25.765 21.3792 25.5366C22.1024 24.6814 22.8076 23.8101 23.5029 22.9315Z" fill="url(#paint0_linear)"/>
<defs>
<linearGradient id="paint0_linear" x1="0" y1="15.0002" x2="35.2205" y2="15.0002" gradientUnits="userSpaceOnUse">
<stop stop-color="#0097D8"/>
<stop offset="1" stop-color="#31C6AC"/>
</linearGradient>
</defs>
</svg>
